<svg xmlns="http://www.w3.org/2000/svg" viewBox="0 0 1200 630" width="1200" height="630">
  <rect width="1200" height="630" fill="#ffffff"/>
  <!-- bread, left -->
  <g transform="translate(330 300) scale(1.25)">
    <path d="M -168 60 C -168 -52 -96 -120 0 -120 C 96 -120 168 -52 168 60 C 168 86 150 100 120 100 L -120 100 C -150 100 -168 86 -168 60 Z" fill="#de9b54"/>
    <path d="M -150 30 C -150 -44 -86 -104 0 -104 C 86 -104 150 -44 150 30" fill="none" stroke="#c9863f" stroke-width="10" stroke-linecap="round" opacity="0.5"/>
    <g stroke="#7a4a1e" stroke-width="13" stroke-linecap="round" opacity="0.8">
      <line x1="-78" y1="-40" x2="-44" y2="26"/>
      <line x1="-18" y1="-58" x2="16" y2="22"/>
      <line x1="44" y1="-52" x2="78" y2="20"/>
    </g>
  </g>
  <!-- text, right -->
  <g fill="#1e1e1e" font-family="-apple-system, BlinkMacSystemFont, 'Segoe UI', Helvetica, Arial, sans-serif">
    <text x="600" y="300" font-size="96" font-weight="800">Bread</text>
    <text x="600" y="400" font-size="96" font-weight="800">Calculator</text>
    <text x="602" y="468" font-size="36" font-weight="600" fill="#1e1e1e" opacity="0.55">How many breads?</text>
  </g>
</svg>
